<?xml version="1.0" standalone="no"?>
<!DOCTYPE svg PUBLIC "-//W3C//DTD SVG 20010904//EN"
 "http://www.w3.org/TR/2001/REC-SVG-20010904/DTD/svg10.dtd">
<svg version="1.0" xmlns="http://www.w3.org/2000/svg"
 width="838.000000pt" height="838.000000pt" viewBox="0 0 838.000000 838.000000"
 preserveAspectRatio="xMidYMid meet">
<metadata>
Created by potrace 1.11, written by Peter Selinger 2001-2013
</metadata>
<g transform="translate(0.000000,838.000000) scale(0.100000,-0.100000)"
fill="#000000" stroke="none">
<path d="M1735 6952 c-97 -34 -187 -93 -249 -164 -96 -109 -153 -273 -144
-412 4 -51 100 -422 352 -1351 191 -704 353 -1311 360 -1350 7 -38 172 -664
366 -1390 261 -980 361 -1339 387 -1394 48 -101 150 -204 253 -255 194 -95
410 -83 579 32 48 32 379 354 1053 1022 541 535 989 983 997 995 8 11 454 461
991 1000 946 948 979 982 1014 1055 39 80 66 187 66 260 0 72 -27 179 -65 259
-46 97 -159 211 -255 258 -47 22 -430 127 -1360 372 -712 187 -1317 349 -1345
360 -27 11 -646 179 -1375 373 -1314 350 -1326 353 -1435 356 -99 2 -118 0
-190 -26z m2665 -1137 c115 -17 360 -104 500 -176 470 -243 805 -703 875
-1199 70 -504 -90 -1008 -442 -1394 -149 -164 -246 -238 -433 -335 -431 -222
-926 -252 -1353 -81 -217 87 -400 210 -572 384 -137 138 -226 263 -309 431
-90 183 -130 322 -157 550 -16 138 -6 402 21 527 106 501 403 897 841 1123
322 166 677 224 1029 170z"/>
<path d="M3898 5370 c-247 -52 -454 -160 -621 -325 -372 -365 -475 -894 -270
-1371 108 -249 328 -481 578 -606 404 -204 910 -159 1274 112 544 406 659
1173 257 1714 -186 252 -462 423 -775 481 -116 21 -331 19 -443 -5z"/>
</g>
</svg>
